<svg id="floral_divider" data-name="floral_divider" xmlns="http://www.w3.org/2000/svg" viewBox="0 0 360.62 37.92"><title>floral_divider</title><path class="cls-1" d="M367.24,628.77c4.81-2.3,8.93-6.48,8.6-12.16-.29-4.91-4.94-10.43-10.3-8.59s-3.76,9.27,1.28,10.2c2.11.39,4.62-.75,4-3.24-.49-2.12-2.52-2.83-3.85-1-.35.47.51,1.15.93.77a.9.9,0,0,1,1.44,1,2.31,2.31,0,0,1-2.19,1.09,3.68,3.68,0,0,1-3.29-4.26c.41-2.62,3.33-3.76,5.7-3,5.69,1.82,5.1,9.34,2.22,13.19a15,15,0,0,1-6.35,4.71c-6.38-4.14-14.9-3.94-21.68-1-.29.12-.18.43,0,.65a.67.67,0,0,0,.15.28c2,2.25,5.6,3.1,8.45,3.52a27.8,27.8,0,0,0,11.16-.78,21.7,21.7,0,0,0,2.31-.77,13.87,13.87,0,0,1,3.36,4,7.53,7.53,0,0,1,.68,7c-1.05,2.24-3.46,4-6,3.33a3.56,3.56,0,0,1-.49-6.67c1.21-.6,3.1-.25,3.08,1.36,0,.89-.82,2-1.9,1-.37-.33-1.43-.33-1.14.41a2.57,2.57,0,0,0,4.11,1.2c1.2-1,1-2.78.28-4-2.68-4.47-8.91-1.09-8.49,3.53.55,6,8.69,6.48,11.68,2.17C374.4,637.94,371.24,632.18,367.24,628.77Zm-8.26.4a24.88,24.88,0,0,1-7.41,0,28.19,28.19,0,0,1-5.8-2.1c5.93-1.37,12.89-1.88,18.15,1A27.75,27.75,0,0,1,359,629.17Z" transform="translate(-31.34 -607.66)"/><path class="cls-1" d="M391,627.7c-4.37-1.25-8.75-.32-13.16-.08a18.23,18.23,0,0,0,3.64-2.46c1.37-1.19,3.69-3,2.4-4.86a1.11,1.11,0,0,0-1-.44c-4.23,1-8.65,5.07-10.9,8.61a.45.45,0,0,0,0,.47.53.53,0,0,0,0,.14c.43,5,5.84,8.94,10.33,10,.56.14,1-.14.9-.76a12.23,12.23,0,0,0-5.19-7.74c2,0,4.06,0,6.09,0a19.17,19.17,0,0,0,7.53-1.3C392.45,628.92,391.5,627.84,391,627.7Zm-8.76-5.84a29.52,29.52,0,0,1-3.65,3.16,17.76,17.76,0,0,1-3.66,1.89A21.31,21.31,0,0,1,382.26,621.86Zm-1.16,15.21c-3.34-1.18-5.33-3.51-7-6.53A9.57,9.57,0,0,1,381.09,637.07Zm1.51-8.18a38.35,38.35,0,0,1,4-.18A38.82,38.82,0,0,1,382.6,628.89Z" transform="translate(-31.34 -607.66)"/><path class="cls-1" d="M52.22,642.74c3,4.31,11.14,3.8,11.68-2.17.42-4.62-5.81-8-8.49-3.53-.73,1.22-.92,3,.28,4a2.57,2.57,0,0,0,4.11-1.2c.29-.74-.77-.75-1.14-.41-1.08,1-1.89-.13-1.9-1,0-1.62,1.87-2,3.08-1.36a3.56,3.56,0,0,1-.49,6.67c-2.55.7-5-1.1-6-3.33a7.53,7.53,0,0,1,.68-7,13.87,13.87,0,0,1,3.36-4,21.7,21.7,0,0,0,2.31.77,27.8,27.8,0,0,0,11.16.78c2.85-.41,6.48-1.27,8.45-3.52a.67.67,0,0,0,.15-.28c.22-.22.33-.52,0-.65-6.78-3-15.3-3.15-21.68,1a15,15,0,0,1-6.35-4.71c-2.88-3.85-3.47-11.37,2.22-13.19,2.37-.76,5.29.37,5.7,3a3.68,3.68,0,0,1-3.29,4.26,2.31,2.31,0,0,1-2.19-1.09.9.9,0,0,1,1.44-1c.41.38,1.27-.3.93-.77-1.33-1.79-3.36-1.07-3.85,1-.57,2.49,1.93,3.63,4,3.24,5-.93,6.55-8.4,1.28-10.2s-10,3.69-10.3,8.59c-.34,5.68,3.79,9.86,8.6,12.16C52.06,632.18,48.89,637.94,52.22,642.74ZM59.37,628c5.26-2.9,12.22-2.39,18.15-1a28.19,28.19,0,0,1-5.8,2.1,24.88,24.88,0,0,1-7.41,0A27.75,27.75,0,0,1,59.37,628Z" transform="translate(-31.34 -607.66)"/><path class="cls-1" d="M31.64,629.28a19.17,19.17,0,0,0,7.53,1.3c2,.07,4.06.07,6.09,0a12.23,12.23,0,0,0-5.19,7.74c-.12.62.34.9.9.76,4.48-1.09,9.9-5.06,10.33-10a.53.53,0,0,0,0-.14.45.45,0,0,0,0-.47c-2.25-3.55-6.67-7.62-10.9-8.61a1.11,1.11,0,0,0-1,.44c-1.29,1.9,1,3.66,2.4,4.86a18.23,18.23,0,0,0,3.64,2.46c-4.4-.25-8.79-1.17-13.16.08C31.8,627.84,30.85,628.92,31.64,629.28Zm16.7-2.37A17.76,17.76,0,0,1,44.69,625,29.52,29.52,0,0,1,41,621.86,21.31,21.31,0,0,1,48.34,626.91Zm.85,3.63c-1.66,3-3.65,5.35-7,6.53A9.57,9.57,0,0,1,49.19,630.54ZM36.7,628.7a38.35,38.35,0,0,1,4,.18A38.82,38.82,0,0,1,36.7,628.7Z" transform="translate(-31.34 -607.66)"/><path class="cls-1" d="M88.34,627.74h246.5" transform="translate(-31.34 -607.66)"/><path class="cls-1" d="M88.5,628.31c31.41.68,62.88.22,94.3.24l90.54.06h54.24c1.29,0,.48-1.75-.48-1.75h-.26c-1.29,0-.48,1.75.48,1.75,2.67,0,5.33,0,8-.08,1.29,0,.26-2-.81-1.52q.48-.08.12-.06c-1.16,0-.43,1.57.43,1.57q.27,0,0,0c1.22.39.91-1.51-.22-1.55-2.68-.1-5.36-.08-8-.08-1.29,0-.48,1.75.48,1.75h.26c1.29,0,.48-1.75-.48-1.75q-92.37,0-184.74.09c-18.05,0-36.13-.18-54.18.22-.85,0-.31,1.13.31,1.15Z" transform="translate(-31.34 -607.66)"/></svg>