<?xml version="1.0" encoding="utf-8"?>
<!-- Generator: Adobe Illustrator 20.0.0, SVG Export Plug-In . SVG Version: 6.00 Build 0)  -->
<svg version="1.1" id="play_icon" xmlns="http://www.w3.org/2000/svg" xmlns:xlink="http://www.w3.org/1999/xlink" x="0px" y="0px"
	 viewBox="0 0 129 129.3" enable-background="new 0 0 129 129.3" xml:space="preserve">
<g>
	<path fill="#FFFFFF" d="M120.9,34.7c-4.5-8.7-11-16.4-18.9-22.2c-1.2-0.9-2.8-0.6-3.6,0.5c-0.9,1.2-0.6,2.8,0.5,3.6
		c7.2,5.4,13.3,12.4,17.4,20.4c4.3,8.4,6.5,17.4,6.5,26.9c0,32.4-26.4,58.8-58.8,58.8S5.2,96.4,5.2,64C5.2,31.6,31.6,5.2,64,5.2
		c1.4,0,2.6-1.2,2.6-2.6C66.6,1.2,65.4,0,64,0C28.7,0,0,28.7,0,64s28.7,64,64,64c35.3,0,64-28.7,64-64
		C128,53.8,125.6,43.7,120.9,34.7z"/>
	<path fill="#FFFFFF" d="M47.6,34.3c-0.8,0.5-1.3,1.3-1.3,2.3v57.2c0,1.4,1.2,2.6,2.6,2.6c1.4,0,2.6-1.2,2.6-2.6V41.1l38.6,23
		L61.7,82.4c-1.2,0.8-1.6,2.4-0.8,3.6c0.8,1.2,2.4,1.6,3.6,0.8l31.9-20.5c0.8-0.5,1.2-1.3,1.2-2.2c0-0.9-0.5-1.7-1.3-2.2L50.2,34.3
		C49.4,33.8,48.4,33.8,47.6,34.3z"/>
</g>
</svg>
