<?xml version="1.0" encoding="utf-8"?>
<!-- Generator: Adobe Illustrator 20.0.0, SVG Export Plug-In . SVG Version: 6.00 Build 0)  -->
<svg version="1.1" id="zigzag" xmlns="http://www.w3.org/2000/svg" xmlns:xlink="http://www.w3.org/1999/xlink" x="0px" y="0px"
	 viewBox="0 0 402.9 164.9" style="enable-background:new 0 0 402.9 164.9;" xml:space="preserve">
<g>
	<path d="M402.9,110.1c0-0.7-0.3-1.4-0.8-2l-50.7-50.7c-1.1-1.1-2.9-1.1-4,0l-46.7,46.7l-48.8-48.8c-1.1-1.1-2.9-1.1-4,0l-46.5,46.5
		l-49-49c-1.1-1.1-2.9-1.1-4,0l-46.7,46.7L52.9,50.8c-1.1-1.1-2.9-1.1-4,0L0.8,99c-1.1,1.1-1.1,2.9,0,4c1.1,1.1,2.9,1.1,4,0
		l46.2-46.2l48.7,48.7c1.1,1.1,2.9,1.1,4,0c0.1-0.1,0.1-0.2,0.2-0.3c0.1-0.1,0.3-0.1,0.4-0.3l46.2-46.2l48.7,48.7
		c0.7,0.7,1.7,0.9,2.5,0.7c0.7,0,1.5-0.2,2-0.8l46.2-46.2l48.7,48.7c1.1,1.1,2.9,1.1,4,0c0.1-0.1,0.1-0.2,0.2-0.2
		c0.1-0.1,0.3-0.1,0.4-0.3l46.2-46.2L398,112c1.1,1.1,2.9,1.1,4,0C402.6,111.5,402.9,110.8,402.9,110.1z"/>
</g>
</svg>
